<svg aria-hidden="true" viewBox="0 0 256 256" fill="none" xmlns="http://www.w3.org/2000/svg">
<path opacity="0.2" d="M216 40V168H168V88H88V40H216Z" fill="currentColor"/>
<path d="M216 32H88C85.8783 32 83.8434 32.8429 82.3431 34.3431C80.8429 35.8434 80 37.8783 80 40V80H40C37.8783 80 35.8434 80.8429 34.3431 82.3431C32.8429 83.8434 32 85.8783 32 88V216C32 218.122 32.8429 220.157 34.3431 221.657C35.8434 223.157 37.8783 224 40 224H168C170.122 224 172.157 223.157 173.657 221.657C175.157 220.157 176 218.122 176 216V176H216C218.122 176 220.157 175.157 221.657 173.657C223.157 172.157 224 170.122 224 168V40C224 37.8783 223.157 35.8434 221.657 34.3431C220.157 32.8429 218.122 32 216 32ZM160 208H48V96H160V208ZM208 160H176V88C176 85.8783 175.157 83.8434 173.657 82.3431C172.157 80.8429 170.122 80 168 80H96V48H208V160Z" fill="currentColor"/>
<path d="M131 128.498C132.459 128.498 133.858 129.078 134.89 130.109C135.921 131.141 136.501 132.541 136.501 134C136.501 135.459 135.921 136.858 134.89 137.89L98.8896 173.89C98.3791 174.401 97.7727 174.806 97.1055 175.083C96.438 175.36 95.7225 175.502 95 175.502C94.2773 175.502 93.5612 175.36 92.8936 175.083C92.2262 174.806 91.62 174.401 91.1094 173.89L76.1094 158.89C75.0778 157.858 74.4981 156.459 74.498 155C74.498 153.541 75.0776 152.141 76.1094 151.109C77.1411 150.078 78.5409 149.498 80 149.498C81.4589 149.498 82.858 150.078 83.8896 151.109H83.8906L94.999 162.223L127.109 130.109L127.308 129.921C128.317 129.007 129.632 128.498 131 128.498Z" fill="currentColor" stroke="currentColor" stroke-width="5"/>
</svg>
