<svg aria-hidden="true" viewBox="0 0 256 256" fill="none" xmlns="http://www.w3.org/2000/svg">
<path opacity="0.2" d="M216 112V136C216 140.243 214.314 144.313 211.314 147.314C208.313 150.314 204.243 152 200 152H152C150.854 152 149.721 152.246 148.679 152.722C147.636 153.198 146.708 153.892 145.957 154.758C145.206 155.624 144.649 156.641 144.326 157.74C144.002 158.839 143.918 159.995 144.08 161.13L152 208C152 214.365 149.471 220.47 144.971 224.971C140.47 229.471 134.365 232 128 232C121.635 232 115.53 229.471 111.029 224.971C106.529 220.47 104 214.365 104 208L111.92 161.13C112.082 159.995 111.998 158.839 111.674 157.74C111.351 156.641 110.794 155.624 110.043 154.758C109.292 153.892 108.364 153.198 107.321 152.722C106.279 152.246 105.146 152 104 152H56C51.7565 152 47.6869 150.314 44.6863 147.314C41.6857 144.313 40 140.243 40 136V112H216Z" fill="currentColor"/>
<path d="M216 24H72C61.3913 24 51.2172 28.2143 43.7157 35.7157C36.2143 43.2172 32 53.3913 32 64V136C32 142.365 34.5286 148.47 39.0294 152.971C43.5303 157.471 49.6348 160 56 160H104L96.11 206.67C96.0382 207.11 96.0014 207.554 96 208C96 216.487 99.3714 224.626 105.373 230.627C111.374 236.629 119.513 240 128 240C136.487 240 144.626 236.629 150.627 230.627C156.629 224.626 160 216.487 160 208C159.999 207.554 159.962 207.11 159.89 206.67L152 160H200C206.365 160 212.47 157.471 216.971 152.971C221.471 148.47 224 142.365 224 136V32C224 29.8783 223.157 27.8434 221.657 26.3431C220.157 24.8429 218.122 24 216 24ZM72 40H134C162.5 40 169.5 40 192 40H208V104H48V64C48 57.6348 50.5286 51.5303 55.0294 47.0294C59.5303 42.5286 65.6348 40 72 40ZM200 144H152C149.708 144 147.442 144.492 145.357 145.444C143.272 146.396 141.415 147.784 139.913 149.516C138.411 151.247 137.299 153.281 136.651 155.48C136.004 157.679 135.836 159.991 136.16 162.26V162.46L144 208.6C144 212.843 142.314 216.913 139.314 219.914C136.313 222.914 132.243 224.6 128 224.6C123.757 224.6 119.687 222.914 116.686 219.914C113.686 216.913 112 212.843 112 208.6L119.8 162.46V162.26C120.123 159.994 119.957 157.685 119.311 155.489C118.666 153.293 117.557 151.261 116.06 149.531C114.562 147.8 112.711 146.411 110.63 145.456C108.55 144.502 106.289 144.006 104 144H56C53.8783 144 51.8434 143.157 50.3431 141.657C48.8429 140.157 48 138.122 48 136V120H208V136C208 138.122 207.157 140.157 205.657 141.657C204.157 143.157 202.122 144 200 144Z" fill="currentColor"/>
</svg>
